<svg id="Layer_1" data-name="Layer 1" xmlns="http://www.w3.org/2000/svg" xmlns:xlink="http://www.w3.org/1999/xlink" viewBox="0 0 1000 1000"><defs><style>.cls-1{fill:url(#linear-gradient);}.cls-2{fill:url(#linear-gradient-2);}.cls-3{fill:url(#linear-gradient-3);}.cls-4{fill:url(#linear-gradient-4);}.cls-5{fill:url(#linear-gradient-5);}</style><linearGradient id="linear-gradient" x1="932.96" y1="521.85" x2="41.07" y2="483.56" gradientUnits="userSpaceOnUse"><stop offset="0" stop-color="#0cf"/><stop offset="1" stop-color="#33c"/></linearGradient><linearGradient id="linear-gradient-2" x1="933.73" y1="503.96" x2="41.84" y2="465.68" xlink:href="#linear-gradient"/><linearGradient id="linear-gradient-3" x1="932.46" y1="533.62" x2="40.56" y2="495.33" xlink:href="#linear-gradient"/><linearGradient id="linear-gradient-4" x1="947.05" y1="193.79" x2="55.15" y2="155.5" xlink:href="#linear-gradient"/><linearGradient id="linear-gradient-5" x1="919.22" y1="841.87" x2="27.33" y2="803.59" xlink:href="#linear-gradient"/></defs><title>logo1</title><path class="cls-1" d="M997.91,76.68c2.38,35.78-30.68,68.15-64.48,71.67-48.5,5-91.18,25.24-119.24,66.2-16.23,23.68-25.93,51.85-29.36,81.13-4.28,36.58-29.49,58.3-65.94,64.83-73,13.08-115.32,42.52-140.75,115.72-10.91,31.42.35,61.31,18,87.4C626.5,608.5,669,635.88,722.78,645.69c37,6.76,54,26.32,60.81,63.69,8.35,45.82,29.75,85.75,67.46,112.92,24.21,17.44,51.25,32,83.33,35.28,51.16,5.34,76.37,61.5,55.1,103.44-21.86,43.05-79,51.29-116.41,15.33a54.42,54.42,0,0,1-16-33.94c-3.2-43.13-19.34-81.84-49-111.81-21.22-21.46-50.6-33.19-80.89-41.44-18.74-5.13-39.59-2.83-56.26-17.47-14-12.26-21.8-26.45-26.16-43.87-6.85-27.32-11.26-55.39-26.88-80-27.93-44-68-69.48-119.32-71.75-31.55-1.4-57.19,19.24-80.89,38.51C382.21,643.41,363,682,357.16,726.79c-3,22.78-35.07,53.49-59.56,57.64-57.19,9.7-104.84,36.81-132.06,92.44a282,282,0,0,0-23.92,71.59c-6.37,33.14-51.66,57.8-84.46,47.86C13.16,983-2,947.65,6.34,907.26c5.11-24.55,36.47-48,59.86-50.45,41.54-4.28,77.09-20.87,106.66-51.34,25.85-26.62,37.1-59.33,42.86-94.19,5.66-34.15,26.48-61.58,62.85-66.86,38.87-5.63,74.42-18.77,103.7-47.07,51.16-49.5,57.9-107.85,16-165.17-30.55-41.78-71.14-67.71-123.83-72.62-23.95-2.25-51.93-32.14-56.66-59.84-13.38-78-59.33-127.19-134.2-149.76-19.32-5.81-39.75-4.94-56.08-21.67C4.92,105.14-2.4,75,12.05,43.67,23.79,18.22,55.08,2.34,84.12,7c35.36,5.73,55,27.09,60.68,63.08,8.16,52.3,30.86,96.33,77.45,124.74,22.33,13.61,47.49,20,73.13,24.42,32.79,5.65,60.83,31.47,63.31,68.39,4.73,70.27,70.22,136.16,140.52,143.21,19.26,1.93,36.2-9.54,52.27-18.28,51-27.81,80.79-71.91,92.52-128.47,8.77-42.23,22.78-55,65-63.87C785.94,204.11,843.31,151,857.13,67c5.68-34.48,32.37-62.89,78.12-58.61C971.85,11.72,997.85,39.31,997.91,76.68Z" transform="translate(0)"/><path class="cls-2" d="M999.47,291.19c0,35.36-22.41,62-57.48,69.42-40.06,8.49-80.6,17.52-109.22,49.77-33.33,37.55-56.43,90.67-29.07,143,27.08,51.9,66.67,77.54,121.35,87.37,27.59,5,52.77,14.46,67.81,41.76,10.44,18.94,10.46,54.83-8.72,82.05C971.3,782.79,933,794.23,910.83,788c-34.75-9.83-51.08-33.69-57.58-68.29C844.5,673.2,822,634.77,781.71,607.26,757.55,590.8,732,580.38,703.25,576.5c-29.15-3.94-57.67-32.11-61-59-4.52-36,13.72-73,44-82.64,18.71-6,38.74-7.64,57.48-14.78,50.5-19.16,82.14-55.73,102.59-104.67,8-19.16,5.1-40.44,15.72-58.83,19.27-33.3,49-45.83,89.49-35.57C973.62,226.65,1004.43,255.3,999.47,291.19Z" transform="translate(0)"/><path class="cls-3" d="M73.55,782.92C28.52,784.35,3.44,751.24.45,714c-2.61-32.74,24-67.47,62.42-74,72-12.34,126.11-43.58,146.78-127.62,5.55-22.62-3.15-41.86-10.84-61.15-24.07-60.36-74.65-85-134.35-94.56-27.86-4.44-46-18.92-57.69-43.1C-6,287.06.43,262.46,16.84,240.34c17.65-23.78,42.68-34.75,71.51-28.09,33.4,7.72,53.88,30.15,58.9,65,10.39,71.91,68.24,132.14,139.43,145.43,24.76,4.63,47.28,12.82,62.24,35.68,14.66,22.39,16.49,46,5.81,68.95-10.36,22.2-26.35,38.85-54.52,40.88-72.12,5.21-142.68,75.37-153.83,150.9C140.38,759.46,113.56,783,73.55,782.92Z" transform="translate(0)"/><path class="cls-4" d="M291.17.54C326.53.54,353.2,23,360.6,58c8.48,40.06,17.52,80.6,49.76,109.22,37.55,33.33,90.67,56.43,143,29.07,51.9-27.09,77.54-66.67,87.37-121.35,5-27.59,14.45-52.78,41.75-67.81,19-10.44,54.84-10.47,82.06,8.72C782.77,28.71,794.21,67,788,89.18c-9.83,34.75-33.7,51.08-68.29,57.58-46.49,8.75-84.91,31.21-112.42,71.54-16.47,24.16-26.88,49.68-30.76,78.46-3.94,29.15-32.11,57.67-59,61.05-36,4.52-73-13.71-82.64-44-6-18.71-7.64-38.74-14.77-57.48-19.16-50.5-55.74-82.14-104.68-102.59-19.16-8-40.43-5.1-58.83-15.73C223.26,118.75,210.73,89.07,221,48.53,226.64,26.36,255.26-4.46,291.17.54Z" transform="translate(0)"/><path class="cls-5" d="M782.9,926.45c1.43,45-31.69,70.11-68.92,73.1-32.75,2.61-67.47-24-74.05-62.42-12.34-72-43.58-126.11-127.62-146.78-22.62-5.55-41.86,3.14-61.15,10.83-60.36,24.08-85,74.66-94.55,134.36-4.44,27.86-18.93,46-43.11,57.69-26.45,12.79-51.05,6.34-73.17-10.07-23.79-17.65-34.75-42.68-28.09-71.51,7.71-33.4,30.15-53.88,65-58.91,71.91-10.38,132.13-68.23,145.43-139.43,4.62-24.76,12.81-47.28,35.67-62.23,22.39-14.67,46-16.49,68.95-5.82,22.2,10.36,38.85,26.35,40.88,54.52,5.21,72.12,75.37,142.68,150.9,153.84C759.43,859.64,783,886.47,782.9,926.45Z" transform="translate(0)"/></svg>